<svg width="1024" height="1024" viewBox="0 0 36 36" fill="none" xmlns="http://www.w3.org/2000/svg">
  <rect width="36" height="36" rx="8" fill="#0E60C3"/>
  <path d="M28.064 20.63L6.248 30.94a.928.928 0 01-.435.103.757.757 0 01-.753-.753.897.897 0 01.183-.506l8.971-9.115H7.832c-.285 0-.554-.435-.554-.752s.269-.752.554-.752h8.433a.76.76 0 01.76.752.73.73 0 01-.205.515l-.024.024-6.778 6.936L24.12 20.67h-2.954a.752.752 0 110-1.505h6.66a.755.755 0 01.744.753.767.767 0 01-.507.712zm2.7-14.381l-8.971 9.114h6.39c.325 0 .555.436.555.752 0 .317-.285.753-.555.753H19.75a.759.759 0 01-.76-.753.731.731 0 01.205-.514l.024-.024 6.779-6.937-14.112 6.723h2.954a.752.752 0 010 1.505H8.18a.755.755 0 01-.744-.752.81.81 0 01.507-.721L29.767 5.093a.928.928 0 01.436-.103.757.757 0 01.752.752.995.995 0 01-.19.507z" fill="#F6F9FF"/>
</svg>
